<svg height="512" viewBox="0 0 512 512" width="512" xmlns="http://www.w3.org/2000/svg"><g id="Flat"><path d="m101.42 106.35c4.53 24.38 13.6 73.17 21.93 117.98 7.977 42.9 12.086 86.513 16.163 130.135h66.006c-12.942-46.065-26.267-92.058-34.979-138.915-8.33-44.8-17.4-93.58-21.93-117.97-1.84-9.86-2.93-15.73-2.93-15.73l-6.16-40.93-49.88 7.59 8.85 42.11s1.09 5.87 2.93 15.73z" fill="#e9ae48"/><path d="m148.61 97.58-47.19 8.77c-1.84-9.86-2.93-15.73-2.93-15.73l-8.85-42.11 49.88-7.59 6.16 40.93s1.09 5.87 2.93 15.73z" fill="#d7a148"/><path d="m161.408 78.921-133.708 24.863-11.7-62.922 133.708-24.862 73.712 2.568 5.85 31.461z" fill="#c9c9c8"/><path d="m343.462 378.18 17.328-131.57 4.18-31.74-47.41-7.48-5.8 31.47-25.675 139.32z" fill="#ce882a"/><path d="m322.234 229.086 8.22-52.059-13.309-18.3 16.22-102.727 63.217 9.982-16.22 102.727-18.3 13.309-8.622 54.605z" fill="#c9c9c8"/><path d="m364.97 214.87-4.18 31.74-49.03-7.75 5.8-31.47z" fill="#e9ae48"/><path d="m333.365 56 63.217 9.982-2.5 15.8a16 16 0 0 1 -18.3 13.309l-31.604-4.991a16 16 0 0 1 -13.309-18.3z" fill="#b2b1b4"/><path d="m394.803 312 45.67-292.125 63.232 9.886-44.36 283.748z" fill="#0093b9"/><g fill="#006d87"><path d="m407.258 246.849h16.001v24h-16.001z" transform="matrix(.154 -.988 .988 .154 95.375 629.142)"/><path d="m413.437 207.328h16.001v24h-16.001z" transform="matrix(.154 -.988 .988 .154 139.646 601.83)"/><path d="m419.615 167.809h16.001v24h-16.001z" transform="matrix(.154 -.988 .988 .154 183.915 574.519)"/><path d="m425.794 128.288h16.001v24h-16.001z" transform="matrix(.154 -.988 .988 .154 228.186 547.207)"/><path d="m431.972 88.769h16.001v24h-16.001z" transform="matrix(.154 -.988 .988 .154 272.455 519.896)"/><path d="m438.151 49.248h16.001v24h-16.001z" transform="matrix(.155 -.988 .988 .155 316.708 492.58)"/></g><path d="m277.242 432-4.712-184-.82-32h-48l-.82 32-4.719 184z" fill="#ce882a"/><path d="m263.705 232v-48l16-16v-104l-64 32v72l16 16v48z" fill="#c9c9c8"/><path d="m272.53 248h-49.64l.82-32h48z" fill="#e9ae48"/><path d="m215.705 96 64-32v40l-64 32z" fill="#b2b1b4"/><path d="m72.945 313.509-27.883-150.567 31.465-5.826 28.962 156.393z" fill="#f8bc1e"/><path d="m54.992 199.093h32v32h-32z" fill="#e9ae48" transform="matrix(.983 -.182 .182 .983 -37.979 16.523)"/><path d="m48.436 159.695h32v40h-32z" fill="#c9c9c8" transform="matrix(.983 -.182 .182 .983 -31.643 14.737)"/><path d="m472 312v152a24 24 0 0 1 -24 24h-384a24 24 0 0 1 -24-24v-152z" fill="#808080"/><path d="m199.999 328h112v160h-112z" fill="#686869"/><path d="m40 328h160v16h-160z" fill="#686869"/><path d="m312 328h160v16h-160z" fill="#686869"/><path d="m200 328h112v16h-112z" fill="#4e4e4f"/><path d="m152 312v56h-16v-16h-16v16h-16v-56h-16v64a8 8 0 0 0 8 8h24v16h16v-16h24a8 8 0 0 0 8-8v-64z" fill="#c9c9c8"/><path d="m88 328h16v16h-16z" fill="#b2b1b4"/><path d="m152 328h16v16h-16z" fill="#b2b1b4"/><path d="m408 312v56h-16v-16h-16v16h-16v-56h-16v64a8 8 0 0 0 8 8h24v16h16v-16h24a8 8 0 0 0 8-8v-64z" fill="#c9c9c8"/><path d="m344 328h16v16h-16z" fill="#b2b1b4"/><path d="m408 328h16v16h-16z" fill="#b2b1b4"/><path d="m24 296h464v32h-464z" fill="#eb5849"/><path d="m336 480h-184l-16-16 16-16h184z" fill="#c9c9c8"/><path d="m464 488h-80l-16-8h-16l-16 8h-24v-48h24l16 8h16l16-8h80a24 24 0 0 1 24 24 24 24 0 0 1 -24 24z" fill="#f7ce2c"/><path d="m440 440h16v48h-16z" fill="#e3be21"/></g></svg>